# xmcd CD database file
#
# Track frame offsets:
#	150
#	26958
#	49150
#	75208
#	94115
#	116178
#	140580
#	159593
#	178733
#	196045
#	221573
#	243840
#	267698
#
# Disc length: 3852 seconds
#
# Revision: 1
# Processed by: cddbd v1.5.1PL2 Copyright (c) Steve Scherf et al.
# Submitted via: CDex 1.70beta1
#
DISCID=b70f0a0d
DTITLE=Sharlene Flores - Sharlene Flores with Flores de San Jose
DYEAR=1993
DGENRE=Salsa
TTITLE0=Parang Soca Fun
TTITLE1=El Angel Gabriel
TTITLE2=Margarita Christmas
TTITLE3=Burbujas De Amor
TTITLE4=Recuerdos
TTITLE5=Spanish Confusion
TTITLE6=Burbujas De Amor {instrumental}
TTITLE7=Bendita Tu Eres
TTITLE8=Sereno Sereno
TTITLE9=Si Yo Pudiera
TTITLE10=Vamos,  Vamos, Vamos
TTITLE11=La Vida Fuera
TTITLE12=Yo Busco Inspiracion
EXTD=YEAR: 1993
EXTT0=
EXTT1=
EXTT2=
EXTT3=
EXTT4=
EXTT5=
EXTT6=
EXTT7=
EXTT8=
EXTT9=
EXTT10=
EXTT11=
EXTT12=
PLAYORDER=
